<?xml version="1.0" standalone="no"?>
<!DOCTYPE svg PUBLIC "-//W3C//DTD SVG 20010904//EN"
 "http://www.w3.org/TR/2001/REC-SVG-20010904/DTD/svg10.dtd">
<svg version="1.0" xmlns="http://www.w3.org/2000/svg"
 width="500.000000pt" height="500.000000pt" viewBox="0 0 500.000000 500.000000"
 preserveAspectRatio="xMidYMid meet">

<g transform="translate(0.000000,500.000000) scale(0.100000,-0.100000)"
fill="#000000" stroke="none">
<path d="M1360 2806 c0 -7 -18 -25 -40 -40 -22 -14 -40 -31 -40 -37 0 -11 9
-7 53 23 27 19 27 19 27 -1 0 -18 -21 -40 -66 -67 -11 -7 -16 -15 -12 -19 4
-4 23 3 42 15 35 21 36 21 36 2 0 -12 -19 -36 -42 -56 -49 -43 -44 -61 7 -22
l35 27 0 -23 c0 -17 -12 -31 -40 -48 -22 -14 -40 -28 -40 -32 0 -14 21 -8 51
13 l29 20 0 -26 c0 -19 -11 -33 -45 -57 -24 -17 -42 -35 -39 -40 3 -5 17 0 32
10 49 34 52 35 52 10 0 -15 -12 -31 -35 -46 -46 -29 -46 -50 0 -22 33 20 35
21 35 3 0 -11 -20 -31 -50 -51 -27 -18 -50 -37 -50 -43 0 -11 28 2 73 33 l27
19 0 -90 c0 -49 5 -93 10 -96 6 -4 10 25 10 80 l0 86 31 -16 c48 -25 58 -11
11 15 -38 21 -42 27 -42 62 l0 38 40 -25 c30 -19 40 -22 40 -11 0 8 -18 23
-40 33 -29 13 -40 24 -40 40 l0 23 33 -20 c35 -22 47 -25 47 -12 0 5 -18 18
-40 31 -30 16 -40 29 -40 47 l0 24 40 -20 c22 -11 40 -16 40 -11 0 5 -18 20
-40 32 -29 17 -40 29 -40 47 l0 24 36 -22 c19 -12 38 -20 41 -16 4 3 4 7 2 9
-56 39 -79 62 -79 78 0 24 8 24 36 -2 12 -12 29 -19 36 -17 8 3 -4 16 -29 34
-33 22 -42 35 -43 58 l0 28 36 -27 c19 -15 38 -24 42 -20 4 4 -6 16 -23 28
-16 12 -38 30 -47 40 -22 21 -28 21 -28 3z"/>
<path d="M3691 2772 c-57 -39 -54 -57 5 -23 44 26 44 26 44 -1 0 -16 -13 -31
-45 -51 -25 -16 -45 -33 -45 -38 0 -14 8 -11 48 16 30 21 38 23 40 10 3 -13
-25 -43 -77 -82 -9 -6 -13 -15 -8 -19 4 -4 25 7 47 25 l40 32 0 -28 c0 -23
-10 -34 -51 -61 -62 -41 -58 -55 6 -18 l45 27 0 -23 c-1 -16 -14 -31 -48 -52
-26 -16 -41 -31 -35 -33 7 -3 29 5 48 17 l35 22 0 -24 c0 -18 -12 -32 -46 -53
-25 -16 -41 -31 -35 -33 6 -2 27 6 46 18 34 21 35 21 35 3 0 -12 -19 -33 -45
-52 -59 -43 -58 -61 1 -20 l46 31 -4 -101 c-2 -61 1 -100 6 -98 6 2 10 17 11
33 1 16 2 57 3 92 l2 63 29 -22 c16 -12 34 -20 41 -17 7 2 -6 17 -29 32 -32
23 -41 35 -41 58 l0 29 37 -28 c22 -17 34 -22 31 -13 -2 8 -19 24 -36 35 -23
15 -31 28 -32 48 l0 28 30 -21 c17 -12 36 -20 43 -17 6 2 -7 16 -31 32 -30 20
-42 34 -42 52 l0 24 34 -26 c19 -14 37 -22 40 -17 3 5 -12 22 -34 37 -29 20
-40 35 -40 53 l0 25 23 -21 c13 -12 30 -22 38 -22 8 1 -2 15 -23 34 -21 18
-38 41 -38 51 0 16 3 15 35 -4 24 -14 35 -16 35 -8 0 8 -16 21 -35 30 -26 13
-35 23 -35 42 0 29 2 30 40 10 18 -9 30 -11 30 -5 0 6 -16 18 -35 27 -19 9
-35 20 -35 25 0 13 -12 8 -69 -30z"/>
<path d="M3460 2726 c0 -9 -3 -16 -7 -16 -15 -1 -86 -70 -80 -77 4 -3 25 8 47
26 35 28 40 30 40 12 0 -10 -21 -38 -47 -60 -56 -50 -51 -67 7 -21 l40 32 0
-25 c0 -24 -29 -55 -76 -83 -11 -6 -14 -13 -7 -17 5 -3 25 5 44 19 33 24 47
19 35 -11 -3 -8 -29 -28 -58 -44 -34 -20 -46 -31 -33 -31 11 0 35 9 53 20 38
24 42 24 42 7 0 -7 -20 -28 -45 -47 -25 -19 -45 -35 -45 -37 0 -12 34 1 59 23
28 23 31 24 31 7 0 -24 -16 -44 -59 -73 -19 -13 -29 -26 -23 -28 6 -2 25 6 41
17 36 26 36 26 38 2 1 -13 -15 -32 -42 -53 -25 -18 -45 -36 -45 -40 0 -15 19
-8 48 17 16 13 32 22 36 18 3 -3 6 -48 6 -100 0 -63 4 -93 11 -93 9 0 10 28 6
100 l-5 101 33 -26 c36 -27 45 -30 45 -16 0 4 -18 21 -40 36 -31 22 -40 34
-40 57 l0 30 35 -22 c19 -12 41 -20 48 -17 7 2 -3 13 -23 25 -48 29 -60 40
-60 58 0 13 6 12 34 -5 36 -22 46 -25 46 -13 0 4 -16 17 -35 30 -20 13 -35 30
-35 42 0 19 1 19 35 -1 19 -12 35 -16 35 -11 0 6 -16 20 -35 32 -27 17 -35 28
-35 51 l0 30 31 -16 c48 -25 58 -11 11 15 -34 19 -42 29 -42 53 l0 28 29 -20
c32 -23 41 -26 41 -12 0 5 -16 19 -35 31 -21 13 -35 30 -35 41 0 20 1 20 31
-1 16 -12 33 -19 37 -15 4 4 -2 13 -13 21 -11 8 -32 26 -47 40 -21 20 -28 22
-28 10z"/>
<path d="M1543 2691 c-18 -15 -33 -33 -33 -40 0 -7 14 -1 33 15 32 27 32 27
35 5 3 -21 -7 -32 -67 -78 -9 -6 -13 -15 -9 -19 4 -4 23 5 43 20 l35 27 0 -27
c0 -19 -12 -37 -37 -60 -25 -22 -33 -33 -22 -34 9 0 24 9 34 20 17 19 20 19
28 4 8 -14 1 -25 -34 -55 -24 -20 -41 -40 -38 -44 4 -3 20 6 37 20 36 30 42
31 42 6 0 -12 -18 -33 -45 -52 -25 -18 -45 -36 -45 -41 0 -13 11 -9 47 18 l33
25 0 -25 c0 -15 -7 -27 -18 -30 -23 -8 -68 -54 -60 -62 3 -3 22 9 42 26 l36
32 0 -30 c0 -23 -9 -37 -37 -60 -21 -17 -35 -34 -30 -38 4 -4 17 2 30 14 13
12 26 22 30 22 4 0 7 -38 7 -85 0 -50 4 -85 10 -85 6 0 10 35 10 85 0 47 2 85
4 85 2 0 20 -7 39 -15 20 -8 38 -11 41 -6 3 5 -8 14 -25 21 -42 18 -59 37 -59
66 l0 25 33 -25 c36 -28 47 -32 47 -16 0 5 -18 20 -40 32 -31 18 -40 29 -40
51 l0 28 37 -25 c20 -14 39 -23 41 -21 8 8 -18 32 -47 45 -22 9 -27 16 -23 35
4 23 5 23 28 8 32 -20 31 0 -1 25 -14 11 -28 35 -32 53 l-6 33 35 -22 c38 -24
48 -27 48 -14 0 5 -18 18 -40 31 -25 14 -40 30 -40 41 0 19 1 19 35 -1 19 -12
40 -19 47 -17 7 3 -9 17 -35 32 -30 18 -47 35 -47 47 0 24 5 24 46 -1 18 -12
35 -17 38 -11 5 8 -91 72 -105 71 -2 -1 -19 -13 -36 -29z"/>
<path d="M3249 1908 c-5 -18 -6 -38 -1 -34 7 8 12 36 6 36 -2 0 -4 -1 -5 -2z"/>
<path d="M3136 1703 c-6 -14 -5 -15 5 -6 7 7 10 15 7 18 -3 3 -9 -2 -12 -12z"/>
<path d="M3295 1620 c3 -5 8 -10 11 -10 2 0 4 5 4 10 0 6 -5 10 -11 10 -5 0
-7 -4 -4 -10z"/>
<path d="M3205 1510 c-3 -6 1 -7 9 -4 18 7 21 14 7 14 -6 0 -13 -4 -16 -10z"/>
</g>
</svg>
